<svg width="364" height="448" viewBox="0 0 364 448" fill="none" xmlns="http://www.w3.org/2000/svg">
<g opacity="0.902809">
<g opacity="0.902809">
<path opacity="0.902809" fill-rule="evenodd" clip-rule="evenodd" d="M260.7 415.272L528.961 346.929L510.158 242.171L370.717 236.431L260.7 415.272Z" stroke="#FEBC11" stroke-width="1.75" stroke-linejoin="round"/>
<path opacity="0.902809" fill-rule="evenodd" clip-rule="evenodd" d="M528.009 346.779L259.748 415.167L418.314 561.769L528.009 346.779Z" stroke="#FEBC11" stroke-width="1.75" stroke-linejoin="round"/>
<path opacity="0.902809" fill-rule="evenodd" clip-rule="evenodd" d="M632.651 49.0288L357.73 190.798L370.206 235.451L509.655 241.188L632.651 49.0288Z" stroke="#FEBC11" stroke-width="1.75" stroke-linejoin="round"/>
<path opacity="0.902809" fill-rule="evenodd" clip-rule="evenodd" d="M356.741 191.721L259.748 416.223L369.146 236.6L356.741 191.721Z" stroke="#FEBC11" stroke-width="1.75" stroke-linejoin="round"/>
<path opacity="0.902809" fill-rule="evenodd" clip-rule="evenodd" d="M357.73 191.721L632.651 49.6408L424.24 -136.471L357.73 191.721Z" stroke="#FEBC11" stroke-width="1.75" stroke-linejoin="round"/>
<path opacity="0.902809" fill-rule="evenodd" clip-rule="evenodd" d="M260.607 414.321L358.682 191.063L1 74.7134L149.1 307.153L260.607 414.321Z" stroke="#FEBC11" stroke-width="1.75" stroke-linejoin="round"/>
<path opacity="0.902809" fill-rule="evenodd" clip-rule="evenodd" d="M429.402 283.995L529.912 347.77L419.384 562.72L349.169 462.903L429.402 283.995Z" stroke="#FEBC11" stroke-width="1.75" stroke-linejoin="round"/>
<path opacity="0.902809" fill-rule="evenodd" clip-rule="evenodd" d="M254.992 302.084L430.028 282.092L349.621 460.933L254.992 302.084Z" stroke="#FEBC11" stroke-width="1.75" stroke-linejoin="round"/>
<path opacity="0.902809" fill-rule="evenodd" clip-rule="evenodd" d="M218.01 80.8709L254.992 302.018L148.662 306.826L1 73.7622L218.01 80.8709Z" stroke="#FEBC11" stroke-width="1.75" stroke-linejoin="round"/>
<path opacity="0.902809" fill-rule="evenodd" clip-rule="evenodd" d="M218.844 82.3234L359.198 191.721L426.223 -136L331.599 -208.768L218.844 82.3234Z" stroke="#FEBC11" stroke-width="1.75" stroke-linejoin="round"/>
<path opacity="0.902809" fill-rule="evenodd" clip-rule="evenodd" d="M632.651 49.0286L509.776 4.82939L329.192 -209.72L423.447 -136.914L632.651 49.0286Z" stroke="#FEBC11" stroke-width="1.75" stroke-linejoin="round"/>
<path opacity="0.902809" fill-rule="evenodd" clip-rule="evenodd" d="M509.935 5.41837L217.892 82.3235L329.879 -209.72L509.935 5.41837Z" stroke="#FEBC11" stroke-width="1.75" stroke-linejoin="round"/>
</g>
</g>
</svg>
